<svg width="345" height="345" viewBox="0 0 345 345" fill="none" xmlns="http://www.w3.org/2000/svg">
<path d="M140.156 32.3438H183.281V48.5156H140.156V32.3438Z" fill="white"/>
<path d="M226.369 170.703C212.898 170.703 212.898 156.328 199.427 156.328C185.955 156.328 185.955 170.703 172.484 170.703C159.013 170.703 159.009 156.328 145.534 156.328C132.059 156.328 132.066 170.703 118.599 170.703C105.12 170.703 105.12 156.328 91.6405 156.328C78.1515 156.328 78.1515 170.703 64.6631 170.703C51.1747 170.703 51.1747 156.328 37.6863 156.328V323.438H247.921V157.295C239.54 160.487 237.741 170.703 226.369 170.703Z" fill="white"/>
<path d="M280.288 170.703C268.898 170.703 267.099 160.483 258.703 157.293V323.438H307.266V156.328C293.777 156.328 293.777 170.703 280.288 170.703Z" fill="white"/>
<path d="M118.599 159.921C120.347 159.921 120.92 159.642 124.195 156.144C126.693 152.851 129.919 150.181 133.621 148.342C137.323 146.504 141.4 145.547 145.533 145.547C149.666 145.547 153.744 146.503 157.446 148.341C161.148 150.179 164.374 152.849 166.873 156.141C170.125 159.613 170.726 159.915 172.446 159.918C170.54 148.805 171.106 137.409 174.106 126.54C177.723 111.667 186.029 98.3519 197.796 88.5626C192.404 82.5505 185.546 78.0391 177.891 75.4688V59.2969H145.547V75.4688C136.128 78.6082 127.937 84.6315 122.132 92.6854C116.327 100.739 113.203 110.416 113.203 120.344V156.366C116.126 159.47 116.815 159.921 118.599 159.921Z" fill="white"/>
<path d="M274.664 156.138C277.812 159.497 278.444 159.921 280.286 159.921C282.129 159.921 282.766 159.497 285.919 156.136C287.021 154.961 288.305 153.622 289.795 152.297C294.485 128.278 286.124 106.329 269.971 102.003C264.163 100.586 258.037 101.343 252.749 104.132C253.627 98.6414 256.296 93.5955 260.34 89.7793C262.382 88.2326 264.731 87.1411 267.23 86.5781C269.729 86.0151 272.319 85.9937 274.827 86.5153C275.534 86.6239 276.256 86.5906 276.951 86.4174C277.645 86.2442 278.298 85.9344 278.871 85.5062C279.445 85.078 279.927 84.5399 280.29 83.9233C280.653 83.3068 280.89 82.624 280.987 81.915C281.083 81.2059 281.038 80.4847 280.853 79.7934C280.668 79.1022 280.347 78.4546 279.909 77.8886C279.471 77.3226 278.925 76.8495 278.302 76.4968C277.68 76.144 276.993 75.9188 276.283 75.8343C272.306 75.096 268.218 75.2142 264.291 76.1809C260.364 77.1476 256.688 78.9407 253.509 81.4405C247.661 86.695 243.715 93.7357 242.286 101.466C239.097 96.3253 234.123 92.5427 228.317 90.8439C211.063 86.2204 191.454 103.454 184.519 129.333C182.503 136.724 181.744 144.401 182.274 152.044C186.959 147.779 193.092 145.456 199.427 145.547C203.551 145.597 207.611 146.575 211.305 148.41C214.998 150.244 218.231 152.888 220.763 156.144C224.043 159.642 224.617 159.921 226.369 159.921C228.122 159.921 228.696 159.642 231.975 156.144C234.475 152.851 237.702 150.181 241.404 148.343C245.107 146.504 249.184 145.548 253.318 145.547C257.452 145.547 261.53 146.502 265.233 148.34C268.936 150.177 272.164 152.846 274.664 156.138Z" fill="white"/>
<path d="M59.0387 156.138C62.1868 159.497 62.8186 159.921 64.6611 159.921C66.5037 159.921 67.1408 159.497 70.2938 156.136C72.8282 152.881 76.0633 150.239 79.7589 148.406C83.4545 146.573 87.5157 145.595 91.6407 145.547C95.3577 145.502 99.0388 146.278 102.422 147.819V120.344C102.454 110.87 104.813 101.548 109.292 93.1991C91.4671 47.6429 69.2847 17.7859 53.7446 21.9496C34.4801 27.1117 32.4516 82.5882 48.5195 147.842C52.5417 149.882 56.1176 152.702 59.0387 156.138ZM88.9087 94.5775C90.2629 95.0356 91.3798 96.0128 92.0135 97.2942C92.6472 98.5757 92.746 100.056 92.2881 101.411L79.8277 138.231C79.6069 138.909 79.2538 139.537 78.7888 140.077C78.3239 140.618 77.7563 141.061 77.119 141.38C76.4817 141.7 75.7873 141.89 75.076 141.94C74.3648 141.989 73.6508 141.897 72.9753 141.668C72.2999 141.44 71.6765 141.08 71.1412 140.609C70.6059 140.138 70.1694 139.566 69.8569 138.925C69.5444 138.284 69.3621 137.587 69.3206 136.876C69.2791 136.164 69.3792 135.451 69.6151 134.778L82.0756 97.9569C82.5345 96.6032 83.5118 95.4871 84.7929 94.8534C86.0741 94.2197 87.5543 94.1208 88.9087 94.5775ZM57.0598 93.3075L69.5122 56.4863C69.9818 55.147 70.9606 54.0469 72.2363 53.4249C73.5119 52.8028 74.9814 52.7089 76.3258 53.1635C77.6703 53.6181 78.7812 54.5845 79.4175 55.8531C80.0539 57.1217 80.1642 58.59 79.7247 59.9395L67.2751 96.7618C67.0543 97.4397 66.7012 98.0671 66.2362 98.6076C65.7713 99.1482 65.2037 99.5911 64.5664 99.9108C63.9291 100.23 63.2347 100.421 62.5234 100.47C61.8122 100.519 61.0981 100.427 60.4227 100.199C59.7473 99.9705 59.1239 99.6104 58.5886 99.1395C58.0533 98.6685 57.6168 98.096 57.3043 97.4552C56.9918 96.8143 56.8095 96.1179 56.768 95.4061C56.7265 94.6943 56.8239 93.9803 57.0598 93.3075Z" fill="white"/>
</svg>
