<svg width="21" height="20" viewBox="0 0 21 20" fill="none" xmlns="http://www.w3.org/2000/svg">
<g clip-path="url(#clip0_1_4140)">
<path fill-rule="evenodd" clip-rule="evenodd" d="M20.4873 7.90123C20.5002 8.55832 20.5 9.29482 20.5 10.1235V12.0988C20.5 15.8234 20.4997 17.6856 19.3281 18.8426C18.1566 19.9997 16.2712 20 12.5 20H8.5C4.72878 20 2.84346 19.9997 1.67188 18.8426C0.500305 17.6856 0.5 15.8234 0.5 12.0988V10.1235C0.5 9.29482 0.499796 8.55832 0.512696 7.90123H20.4873ZM5.5 14.0741C4.94772 14.0741 4.5 14.5162 4.5 15.0617C4.5 15.6072 4.94772 16.0494 5.5 16.0494C6.05228 16.0494 6.5 15.6072 6.5 15.0617C6.5 14.5162 6.05228 14.0741 5.5 14.0741ZM10.5 14.0741C9.9477 14.0741 9.5 14.5162 9.5 15.0617C9.5 15.6072 9.9477 16.0494 10.5 16.0494C11.0523 16.0494 11.5 15.6072 11.5 15.0617C11.5 14.5162 11.0523 14.0741 10.5 14.0741ZM15.5 14.0741C14.9477 14.0741 14.5 14.5162 14.5 15.0617C14.5 15.6072 14.9477 16.0494 15.5 16.0494C16.0523 16.0494 16.5 15.6072 16.5 15.0617C16.5 14.5162 16.0523 14.0741 15.5 14.0741ZM5.5 10.1235C4.94772 10.1235 4.5 10.5656 4.5 11.1111C4.5 11.6566 4.94772 12.0988 5.5 12.0988C6.05228 12.0988 6.5 11.6566 6.5 11.1111C6.5 10.5656 6.05228 10.1235 5.5 10.1235ZM10.5 10.1235C9.9477 10.1235 9.5 10.5656 9.5 11.1111C9.5 11.6566 9.9477 12.0988 10.5 12.0988C11.0523 12.0988 11.5 11.6566 11.5 11.1111C11.5 10.5656 11.0523 10.1235 10.5 10.1235ZM15.5 10.1235C14.9477 10.1235 14.5 10.5656 14.5 11.1111C14.5 11.6566 14.9477 12.0988 15.5 12.0988C16.0523 12.0988 16.5 11.6566 16.5 11.1111C16.5 10.5656 16.0523 10.1235 15.5 10.1235Z" fill="#0057F8"/>
<path d="M15.5 0C15.9142 1.92403e-05 16.25 0.331656 16.25 0.740741V2.30035C17.6893 2.41418 18.6339 2.694 19.3281 3.37963C20.0223 4.06526 20.3057 4.99822 20.4209 6.41975H0.579102C0.694352 4.99819 0.977675 4.06526 1.67188 3.37963C2.36607 2.69401 3.31068 2.41417 4.75 2.30035V0.740741C4.75 0.331644 5.08579 0 5.5 0C5.91419 1.92399e-05 6.25 0.331656 6.25 0.740741V2.23476C6.91526 2.22202 7.66099 2.22222 8.5 2.22222H12.5C13.339 2.22222 14.0847 2.22202 14.75 2.23476V0.740741C14.75 0.331644 15.0858 0 15.5 0Z" fill="#0057F8"/>
</g>
<defs>
<clipPath id="clip0_1_4140">
<rect width="20" height="20" fill="white" transform="translate(0.5)"/>
</clipPath>
</defs>
</svg>
