<svg width="21" height="20" viewBox="0 0 21 20" fill="none" xmlns="http://www.w3.org/2000/svg">
<g clip-path="url(#clip0_1_3868)">
<path d="M14.69 0H6.31C2.67 0 0.5 2.17 0.5 5.81V14.19C0.5 17.83 2.67 20 6.31 20H14.69C18.33 20 20.5 17.83 20.5 14.19V5.81C20.5 2.17 18.33 0 14.69 0ZM8.47 12.9L6.22 15.15C6.07 15.3 5.88 15.37 5.69 15.37C5.5 15.37 5.3 15.3 5.16 15.15L4.41 14.4C4.11 14.11 4.11 13.63 4.41 13.34C4.7 13.05 5.17 13.05 5.47 13.34L5.69 13.56L7.41 11.84C7.7 11.55 8.17 11.55 8.47 11.84C8.76 12.13 8.76 12.61 8.47 12.9ZM8.47 5.9L6.22 8.15C6.07 8.3 5.88 8.37 5.69 8.37C5.5 8.37 5.3 8.3 5.16 8.15L4.41 7.4C4.11 7.11 4.11 6.63 4.41 6.34C4.7 6.05 5.17 6.05 5.47 6.34L5.69 6.56L7.41 4.84C7.7 4.55 8.17 4.55 8.47 4.84C8.76 5.13 8.76 5.61 8.47 5.9ZM16.06 14.62H10.81C10.4 14.62 10.06 14.28 10.06 13.87C10.06 13.46 10.4 13.12 10.81 13.12H16.06C16.48 13.12 16.81 13.46 16.81 13.87C16.81 14.28 16.48 14.62 16.06 14.62ZM16.06 7.62H10.81C10.4 7.62 10.06 7.28 10.06 6.87C10.06 6.46 10.4 6.12 10.81 6.12H16.06C16.48 6.12 16.81 6.46 16.81 6.87C16.81 7.28 16.48 7.62 16.06 7.62Z" fill="#0057F8"/>
</g>
<defs>
<clipPath id="clip0_1_3868">
<rect width="20" height="20" fill="white" transform="translate(0.5)"/>
</clipPath>
</defs>
</svg>
