<svg width="85" height="24" viewBox="0 0 85 24" fill="none" xmlns="http://www.w3.org/2000/svg">
<path d="M22.7306 20.8L24.1706 20.4C24.9706 20.4 25.3706 20.8 25.3706 21.6C25.3706 22.1867 25.0106 22.6 24.2906 22.84C23.5706 23.08 23.0506 23.2 22.7306 23.2C21.4506 23.2 20.4773 22.4 19.8106 20.8C19.4373 19.92 19.1173 18.0667 18.8506 15.24C18.6106 12.4133 18.3706 9.86667 18.1306 7.6C17.9173 5.30667 17.6373 4.16 17.2906 4.16C16.9706 4.16 16.5706 6.01333 16.0906 9.72C15.984 10.6 15.8906 11.36 15.8106 12C15.7573 12.6133 15.664 13.4 15.5306 14.36C15.424 15.2933 15.344 15.9733 15.2906 16.4C15.0773 18.1867 14.744 19.5067 14.2906 20.36C13.8373 21.1867 13.104 21.6 12.0906 21.6C10.8106 21.6 9.83729 20.8 9.17062 19.2C8.77062 18.32 8.22395 16.5067 7.53062 13.76C6.86395 10.9867 6.23729 8.49333 5.65062 6.28C5.09062 4.06667 4.70395 2.96 4.49062 2.96C4.14395 2.96 3.85062 5.57333 3.61062 10.8C3.39729 16 3.29062 20.0133 3.29062 22.84C3.29062 23.6133 2.89062 24 2.09062 24C1.66395 24 1.35729 23.88 1.17062 23.64C0.983952 23.3733 0.890619 23.1067 0.890619 22.84C0.890619 20.28 0.983952 16.6133 1.17062 11.84C1.38395 7.04 1.63729 4.08 1.93062 2.96C2.35729 1.36 3.19729 0.559999 4.45062 0.559999C5.70395 0.559999 6.62395 1.36 7.21062 2.96C7.53062 3.81333 8.02395 5.66667 8.69062 8.52C9.38395 11.3467 10.0373 13.84 10.6506 16C11.264 18.1333 11.7306 19.2 12.0506 19.2C12.3973 19.2 12.6773 18.1867 12.8906 16.16C13.7973 8.90667 14.384 4.90667 14.6506 4.16C14.8906 3.41333 15.1973 2.82667 15.5706 2.4C15.9706 1.97333 16.544 1.76 17.2906 1.76C18.5706 1.76 19.4906 2.56 20.0506 4.16C20.264 4.69333 20.4773 6.38667 20.6906 9.24C20.904 12.0933 21.1706 14.7333 21.4906 17.16C21.8106 19.5867 22.224 20.8 22.7306 20.8ZM25.1353 21.68C25.1086 21.68 24.9086 21.7867 24.5353 22C23.5753 22.5333 22.8686 22.8 22.4153 22.8C21.6153 22.8 21.2153 22.4 21.2153 21.6C21.2153 21.0933 21.6153 20.68 22.4153 20.36C22.5486 20.3067 22.8686 20.1467 23.3753 19.88C23.882 19.6133 24.1753 19.4533 24.2553 19.4C24.1486 19.16 24.0953 18.8 24.0953 18.32C24.0953 15.92 24.9353 13.8667 26.6153 12.16C28.2953 10.4533 29.8286 9.6 31.2153 9.6C32.602 9.6 33.6953 9.93333 34.4953 10.6C35.2953 11.24 35.6953 12.0267 35.6953 12.96C35.6953 13.8667 35.482 14.6533 35.0553 15.32C34.6286 15.9867 33.962 16.64 33.0553 17.28C31.802 18.1867 29.9753 19.24 27.5753 20.44C28.642 21.2133 30.122 21.6 32.0153 21.6C33.9086 21.6 35.7753 21.2933 37.6153 20.68C38.1753 20.4933 38.4953 20.4 38.5753 20.4C39.3753 20.4 39.7753 20.8 39.7753 21.6C39.7753 22.1867 39.3753 22.6133 38.5753 22.88C36.3353 23.6267 34.1753 24 32.0953 24C29.1353 24 26.8153 23.2267 25.1353 21.68ZM26.4953 18.32C31.0286 16.0533 33.2953 14.3467 33.2953 13.2C33.2953 12.4 32.6286 12 31.2953 12C30.4953 12 29.4953 12.64 28.2953 13.92C27.0953 15.1733 26.4953 16.64 26.4953 18.32ZM62.1909 22.88C60.7509 23.36 59.6309 23.6 58.8309 23.6C58.0309 23.6 57.4043 23.3067 56.9509 22.72C56.4976 22.1333 56.0843 21.1333 55.7109 19.72C55.3643 18.3067 55.0976 17.6 54.9109 17.6C54.2176 17.6 53.4843 18.6667 52.7109 20.8C52.4176 21.6 51.9376 22.3333 51.2709 23C50.6043 23.6667 49.7643 24 48.7509 24C47.7643 24 46.9909 23.56 46.4309 22.68C45.8709 21.8 45.5376 20.84 45.4309 19.8C45.3509 18.76 45.2176 17.8 45.0309 16.92C44.8443 16.04 44.5376 15.6 44.1109 15.6C43.8176 15.6 43.6043 15.68 43.4709 15.84C43.3376 16 43.2176 16.16 43.1109 16.32C43.0309 16.4533 42.9376 16.6 42.8309 16.76C42.7509 16.8933 42.6443 17.08 42.5109 17.32C42.4043 17.56 42.2709 17.8133 42.1109 18.08C41.5776 19.0133 41.1509 19.7067 40.8309 20.16C40.1909 21.1733 39.2443 21.9467 37.9909 22.48C37.5109 22.6933 37.1243 22.8 36.8309 22.8C36.0309 22.8 35.6309 22.4 35.6309 21.6C35.6309 21.0933 36.0576 20.68 36.9109 20.36C37.7643 20.04 38.3643 19.5867 38.7109 19C39.0843 18.3867 39.4976 17.6933 39.9509 16.92C40.4043 16.1467 40.7109 15.6267 40.8709 15.36C41.0576 15.0933 41.2843 14.7733 41.5509 14.4C41.8176 14 42.0576 13.7467 42.2709 13.64C42.8309 13.3467 43.4443 13.2 44.1109 13.2C45.2043 13.2 46.0309 13.64 46.5909 14.52C47.1509 15.4 47.4709 16.36 47.5509 17.4C47.6576 18.44 47.8043 19.4 47.9909 20.28C48.1776 21.16 48.4843 21.6 48.9109 21.6C49.3376 21.6 49.7376 21.2667 50.1109 20.6C50.5109 19.9333 50.8576 19.2 51.1509 18.4C51.4443 17.6 51.9109 16.8667 52.5509 16.2C53.2176 15.5333 54.0043 15.2 54.9109 15.2C55.6043 15.2 56.1109 15.3733 56.4309 15.72C56.7509 16.04 56.9776 16.2933 57.1109 16.48C57.2709 16.6667 57.4043 16.9467 57.5109 17.32C57.6443 17.6933 57.7376 17.9733 57.7909 18.16C57.8443 18.32 57.9243 18.6133 58.0309 19.04C58.3509 20.5067 58.6443 21.2267 58.9109 21.2C59.4176 21.2 60.0709 21.0667 60.8709 20.8C61.6709 20.5333 62.1109 20.4 62.1909 20.4C62.9909 20.4 63.3909 20.8 63.3909 21.6C63.3909 22.1867 62.9909 22.6133 62.1909 22.88ZM65.3062 13.2C65.3062 12.8533 65.4129 12.5733 65.6262 12.36C65.8396 12.12 66.1329 12 66.5062 12C67.3062 12 67.7062 12.4 67.7062 13.2C67.7062 15.2533 68.1862 17.1733 69.1462 18.96C70.1329 20.72 71.2529 21.6 72.5062 21.6C73.0662 21.6 74.2929 18.4267 76.1862 12.08C76.4262 11.28 76.9329 10.88 77.7062 10.88C78.1062 10.88 78.3996 10.96 78.5862 11.12C78.7729 11.28 78.8796 11.4933 78.9062 11.76C78.9596 12.0267 79.0396 12.5333 79.1462 13.28C79.2529 14.0267 79.3862 14.7733 79.5462 15.52C79.6796 16.2667 79.8529 17.0667 80.0662 17.92C80.5462 19.84 81.0929 20.8 81.7062 20.8C82.2129 20.8 82.6662 20.7333 83.0662 20.6C83.4662 20.4667 83.7062 20.4 83.7862 20.4C84.5862 20.4 84.9862 20.8 84.9862 21.6C84.9862 22.1867 84.6262 22.6 83.9062 22.84C83.1862 23.08 82.5196 23.2 81.9062 23.2C81.2929 23.2 80.7862 23.1067 80.3862 22.92C79.9862 22.7067 79.6529 22.4533 79.3862 22.16C79.1729 21.8933 78.9329 21.4933 78.6662 20.96C78.3729 20.3733 78.0929 19.6933 77.8262 18.92C77.5862 18.1467 77.4529 17.6933 77.4262 17.56C77.3996 17.4267 77.3729 17.2933 77.3462 17.16C77.3462 17 77.3329 16.88 77.3062 16.8C77.2529 16.9067 77.1996 17.0667 77.1462 17.28L76.9862 17.76C76.9329 17.8667 76.8796 17.9867 76.8262 18.12C76.7996 18.2267 76.6662 18.64 76.4262 19.36C76.1862 20.0533 75.9729 20.6133 75.7862 21.04C75.5996 21.4133 75.3462 21.8667 75.0262 22.4C74.3862 23.4667 73.5062 24 72.3862 24C71.2929 24 70.1462 23.4667 68.9462 22.4C67.7462 21.3333 66.8129 19.9067 66.1462 18.12C65.6396 18.9467 65.0262 19.7067 64.3062 20.4C63.1062 21.5733 62.2262 22.2667 61.6662 22.48C61.1329 22.6933 60.7196 22.8 60.4262 22.8C59.6262 22.8 59.2262 22.4 59.2262 21.6C59.2262 21.0933 59.6262 20.68 60.4262 20.36C61.2262 20.0133 62.2396 19.16 63.4662 17.8C64.6929 16.44 65.3062 14.9067 65.3062 13.2Z" fill="white"/>
</svg>
